<mxfile host="65bd71144e">
    <diagram id="zyXLgvpZZdQqRxHnkDSp" name="ページ1">
        <mxGraphModel dx="932" dy="1069" grid="1" gridSize="10" guides="1" tooltips="1" connect="1" arrows="1" fold="1" page="1" pageScale="1" pageWidth="827" pageHeight="1169" math="0" shadow="0">
            <root>
                <mxCell id="0"/>
                <mxCell id="1" parent="0"/>
                <mxCell id="2" value="プレイヤー" style="html=1;" vertex="1" parent="1">
                    <mxGeometry x="90" y="180" width="110" height="50" as="geometry"/>
                </mxCell>
                <mxCell id="3" value="対戦（開始）" style="html=1;" vertex="1" parent="1">
                    <mxGeometry x="320" y="180" width="110" height="50" as="geometry"/>
                </mxCell>
                <mxCell id="4" value="対戦結果" style="html=1;" vertex="1" parent="1">
                    <mxGeometry x="320" y="320" width="110" height="50" as="geometry"/>
                </mxCell>
                <mxCell id="5" value="盤面(の状態)" style="html=1;" vertex="1" parent="1">
                    <mxGeometry x="720" y="180" width="110" height="50" as="geometry"/>
                </mxCell>
                <mxCell id="13" style="edgeStyle=none;html=1;exitX=0.5;exitY=1;exitDx=0;exitDy=0;entryX=0;entryY=0;entryDx=34.5;entryDy=0;entryPerimeter=0;endArrow=none;endFill=0;dashed=1;" edge="1" parent="1" source="6" target="9">
                    <mxGeometry relative="1" as="geometry"/>
                </mxCell>
                <mxCell id="6" value="石" style="html=1;" vertex="1" parent="1">
                    <mxGeometry x="880" y="310" width="110" height="50" as="geometry"/>
                </mxCell>
                <mxCell id="9" value="&lt;span style=&quot;background-color: initial;&quot;&gt;石の種類&lt;/span&gt;&lt;br&gt;&lt;ul&gt;&lt;li&gt;&lt;span style=&quot;background-color: initial;&quot;&gt;空&lt;/span&gt;&lt;/li&gt;&lt;li&gt;&lt;span style=&quot;background-color: initial;&quot;&gt;黒&lt;/span&gt;&lt;/li&gt;&lt;li&gt;&lt;span style=&quot;background-color: initial;&quot;&gt;白&lt;/span&gt;&lt;/li&gt;&lt;/ul&gt;" style="shape=note;whiteSpace=wrap;html=1;backgroundOutline=1;darkOpacity=0.05;size=11;align=left;fillColor=#ffe6cc;strokeColor=#d79b00;" vertex="1" parent="1">
                    <mxGeometry x="880" y="430" width="100" height="100" as="geometry"/>
                </mxCell>
                <mxCell id="16" value="" style="endArrow=none;html=1;edgeStyle=orthogonalEdgeStyle;entryX=0;entryY=0.5;entryDx=0;entryDy=0;" edge="1" parent="1" source="2" target="3">
                    <mxGeometry relative="1" as="geometry">
                        <mxPoint x="200" y="200" as="sourcePoint"/>
                        <mxPoint x="360" y="200" as="targetPoint"/>
                    </mxGeometry>
                </mxCell>
                <mxCell id="17" value="1" style="edgeLabel;resizable=0;html=1;align=left;verticalAlign=bottom;" connectable="0" vertex="1" parent="16">
                    <mxGeometry x="-1" relative="1" as="geometry"/>
                </mxCell>
                <mxCell id="18" value="*&amp;nbsp;&amp;nbsp;" style="edgeLabel;resizable=0;html=1;align=right;verticalAlign=bottom;" connectable="0" vertex="1" parent="16">
                    <mxGeometry x="1" relative="1" as="geometry"/>
                </mxCell>
                <mxCell id="20" value="" style="endArrow=none;html=1;edgeStyle=orthogonalEdgeStyle;entryX=0.5;entryY=0;entryDx=0;entryDy=0;" edge="1" parent="1" target="4">
                    <mxGeometry relative="1" as="geometry">
                        <mxPoint x="375" y="230" as="sourcePoint"/>
                        <mxPoint x="330" y="215" as="targetPoint"/>
                    </mxGeometry>
                </mxCell>
                <mxCell id="21" value="1" style="edgeLabel;resizable=0;html=1;align=left;verticalAlign=bottom;" connectable="0" vertex="1" parent="20">
                    <mxGeometry x="-1" relative="1" as="geometry"/>
                </mxCell>
                <mxCell id="22" value="0..1" style="edgeLabel;resizable=0;html=1;align=right;verticalAlign=bottom;" connectable="0" vertex="1" parent="20">
                    <mxGeometry x="1" relative="1" as="geometry"/>
                </mxCell>
                <mxCell id="28" value="" style="edgeStyle=none;html=1;endArrow=none;endFill=0;" edge="1" parent="1" source="24" target="3">
                    <mxGeometry relative="1" as="geometry"/>
                </mxCell>
                <mxCell id="24" value="ターン" style="html=1;" vertex="1" parent="1">
                    <mxGeometry x="520" y="180" width="110" height="50" as="geometry"/>
                </mxCell>
                <mxCell id="25" value="" style="endArrow=none;html=1;edgeStyle=orthogonalEdgeStyle;exitX=1;exitY=0.5;exitDx=0;exitDy=0;" edge="1" parent="1" source="3" target="24">
                    <mxGeometry relative="1" as="geometry">
                        <mxPoint x="210" y="215" as="sourcePoint"/>
                        <mxPoint x="330" y="215" as="targetPoint"/>
                    </mxGeometry>
                </mxCell>
                <mxCell id="26" value="1" style="edgeLabel;resizable=0;html=1;align=left;verticalAlign=bottom;" connectable="0" vertex="1" parent="25">
                    <mxGeometry x="-1" relative="1" as="geometry"/>
                </mxCell>
                <mxCell id="27" value="*&amp;nbsp;&amp;nbsp;" style="edgeLabel;resizable=0;html=1;align=right;verticalAlign=bottom;" connectable="0" vertex="1" parent="25">
                    <mxGeometry x="1" relative="1" as="geometry"/>
                </mxCell>
                <mxCell id="29" value="" style="endArrow=none;html=1;edgeStyle=orthogonalEdgeStyle;exitX=1;exitY=0.5;exitDx=0;exitDy=0;" edge="1" parent="1">
                    <mxGeometry relative="1" as="geometry">
                        <mxPoint x="630" y="204.5" as="sourcePoint"/>
                        <mxPoint x="720" y="204.5" as="targetPoint"/>
                    </mxGeometry>
                </mxCell>
                <mxCell id="30" value="1" style="edgeLabel;resizable=0;html=1;align=left;verticalAlign=bottom;" connectable="0" vertex="1" parent="29">
                    <mxGeometry x="-1" relative="1" as="geometry"/>
                </mxCell>
                <mxCell id="31" value="1" style="edgeLabel;resizable=0;html=1;align=right;verticalAlign=bottom;" connectable="0" vertex="1" parent="29">
                    <mxGeometry x="1" relative="1" as="geometry"/>
                </mxCell>
                <mxCell id="32" value="マス目" style="html=1;" vertex="1" parent="1">
                    <mxGeometry x="880" y="180" width="110" height="50" as="geometry"/>
                </mxCell>
                <mxCell id="33" value="" style="endArrow=none;html=1;exitX=1;exitY=0.5;exitDx=0;exitDy=0;entryX=0;entryY=0.5;entryDx=0;entryDy=0;" edge="1" parent="1" source="5" target="32">
                    <mxGeometry relative="1" as="geometry">
                        <mxPoint x="440" y="215" as="sourcePoint"/>
                        <mxPoint x="530" y="215" as="targetPoint"/>
                    </mxGeometry>
                </mxCell>
                <mxCell id="34" value="1" style="edgeLabel;resizable=0;html=1;align=left;verticalAlign=bottom;" connectable="0" vertex="1" parent="33">
                    <mxGeometry x="-1" relative="1" as="geometry"/>
                </mxCell>
                <mxCell id="35" value="*&amp;nbsp;&amp;nbsp;" style="edgeLabel;resizable=0;html=1;align=right;verticalAlign=bottom;" connectable="0" vertex="1" parent="33">
                    <mxGeometry x="1" relative="1" as="geometry"/>
                </mxCell>
                <mxCell id="36" value="" style="endArrow=none;html=1;edgeStyle=orthogonalEdgeStyle;entryX=0.5;entryY=0;entryDx=0;entryDy=0;" edge="1" parent="1" target="6">
                    <mxGeometry relative="1" as="geometry">
                        <mxPoint x="935" y="230" as="sourcePoint"/>
                        <mxPoint x="730" y="214.5" as="targetPoint"/>
                    </mxGeometry>
                </mxCell>
                <mxCell id="37" value="1" style="edgeLabel;resizable=0;html=1;align=left;verticalAlign=bottom;" connectable="0" vertex="1" parent="36">
                    <mxGeometry x="-1" relative="1" as="geometry"/>
                </mxCell>
                <mxCell id="38" value="1" style="edgeLabel;resizable=0;html=1;align=right;verticalAlign=bottom;" connectable="0" vertex="1" parent="36">
                    <mxGeometry x="1" relative="1" as="geometry"/>
                </mxCell>
                <mxCell id="39" value="手" style="html=1;" vertex="1" parent="1">
                    <mxGeometry x="720" y="100" width="110" height="50" as="geometry"/>
                </mxCell>
                <mxCell id="40" value="" style="endArrow=none;html=1;edgeStyle=orthogonalEdgeStyle;exitX=0.75;exitY=0;exitDx=0;exitDy=0;entryX=0;entryY=0.5;entryDx=0;entryDy=0;" edge="1" parent="1" source="24" target="39">
                    <mxGeometry relative="1" as="geometry">
                        <mxPoint x="640" y="214.5" as="sourcePoint"/>
                        <mxPoint x="730" y="214.5" as="targetPoint"/>
                    </mxGeometry>
                </mxCell>
                <mxCell id="41" value="1" style="edgeLabel;resizable=0;html=1;align=left;verticalAlign=bottom;" connectable="0" vertex="1" parent="40">
                    <mxGeometry x="-1" relative="1" as="geometry"/>
                </mxCell>
                <mxCell id="42" value="1" style="edgeLabel;resizable=0;html=1;align=right;verticalAlign=bottom;" connectable="0" vertex="1" parent="40">
                    <mxGeometry x="1" relative="1" as="geometry"/>
                </mxCell>
                <mxCell id="43" value="プレイヤーは複数の対戦ができる（1対多）" style="text;html=1;strokeColor=none;fillColor=none;align=center;verticalAlign=middle;whiteSpace=wrap;rounded=0;" vertex="1" parent="1">
                    <mxGeometry x="210" y="120" width="130" height="50" as="geometry"/>
                </mxCell>
                <mxCell id="44" value="対戦が始まり終わると&lt;br&gt;結果が確定する" style="text;html=1;strokeColor=none;fillColor=none;align=center;verticalAlign=middle;whiteSpace=wrap;rounded=0;" vertex="1" parent="1">
                    <mxGeometry x="230" y="250" width="130" height="50" as="geometry"/>
                </mxCell>
                <mxCell id="45" value="対戦には&lt;br&gt;複数のターンがある" style="text;html=1;strokeColor=none;fillColor=none;align=center;verticalAlign=middle;whiteSpace=wrap;rounded=0;" vertex="1" parent="1">
                    <mxGeometry x="414" y="120" width="130" height="50" as="geometry"/>
                </mxCell>
                <mxCell id="46" value="ターンには&lt;br&gt;石を打つこと（手）&lt;br&gt;が一回できる" style="text;html=1;strokeColor=none;fillColor=none;align=center;verticalAlign=middle;whiteSpace=wrap;rounded=0;" vertex="1" parent="1">
                    <mxGeometry x="570" y="60" width="130" height="50" as="geometry"/>
                </mxCell>
                <mxCell id="47" value="ターンで手が&lt;br&gt;打たれることで盤面が&lt;br&gt;変化する" style="text;html=1;strokeColor=none;fillColor=none;align=center;verticalAlign=middle;whiteSpace=wrap;rounded=0;" vertex="1" parent="1">
                    <mxGeometry x="620" y="260" width="130" height="50" as="geometry"/>
                </mxCell>
                <mxCell id="48" value="盤面には複数の&lt;br&gt;マス目がある" style="text;html=1;strokeColor=none;fillColor=none;align=center;verticalAlign=middle;whiteSpace=wrap;rounded=0;" vertex="1" parent="1">
                    <mxGeometry x="860" y="120" width="130" height="50" as="geometry"/>
                </mxCell>
                <mxCell id="49" value="マス目には石が&lt;br&gt;置かれる状態がある" style="text;html=1;strokeColor=none;fillColor=none;align=center;verticalAlign=middle;whiteSpace=wrap;rounded=0;" vertex="1" parent="1">
                    <mxGeometry x="980" y="250" width="130" height="50" as="geometry"/>
                </mxCell>
            </root>
        </mxGraphModel>
    </diagram>
</mxfile>